#N canvas 0 22 450 300 10;
#X obj 98 189 dac~;
#X obj 126 123 osc~ 440;
#X floatatom 62 87 5 0 0 0 - - -;
#X obj 132 75 mtof;
#X msg 265 102 \; pd dsp \$1;
#X obj 268 68 tgl 15 0 empty empty empty 17 7 0 10 -262144 -1 -1 0
1;
#X obj 134 -20 random 100;
#X floatatom 134 25 5 0 0 0 - - -;
#X obj 171 -62 bng 15 250 50 0 empty empty empty 17 7 0 10 -262144
-1 -1;
#X obj 285 -24 metro 1000;
#X connect 1 0 0 0;
#X connect 1 0 0 1;
#X connect 3 0 1 0;
#X connect 3 0 2 0;
#X connect 5 0 4 0;
#X connect 6 0 7 0;
#X connect 7 0 3 0;
#X connect 8 0 9 0;
#X connect 9 0 6 0;
