#N canvas 0 22 531 446 10;
#X floatatom 132 148 5 0 0 0 - - -;
#X obj 269 39 + 1;
#X obj 154 -43 bng 15 250 50 0 empty empty empty 17 7 0 10 -262144
-1 -1;
#X obj 182 74 % 4;
#X obj 144 184 select 0 1 2 3;
#X obj 111 236 bng 15 250 50 0 empty empty empty 17 7 0 10 -262144
-1 -1;
#X obj 153 237 bng 15 250 50 0 empty empty empty 17 7 0 10 -262144
-1 -1;
#X obj 181 240 bng 15 250 50 0 empty empty empty 17 7 0 10 -262144
-1 -1;
#X obj 235 233 bng 15 250 50 0 empty empty empty 17 7 0 10 -262144
-1 -1;
#X obj 185 -11 metro 300;
#X obj 332 162 dac~;
#X obj 340 102 osc~;
#X floatatom 88 280 5 0 0 0 - - -;
#X floatatom 110 307 5 0 0 0 - - -;
#X floatatom 154 295 5 0 0 0 - - -;
#X floatatom 212 301 5 0 0 0 - - -;
#X obj 169 34 float;
#X obj 358 -7 hsl 128 15 110 880 0 0 empty empty empty -2 -8 0 10 -262144
-1 -1 2300 1;
#X connect 0 0 4 0;
#X connect 1 0 16 1;
#X connect 2 0 9 0;
#X connect 3 0 0 0;
#X connect 4 0 5 0;
#X connect 4 1 6 0;
#X connect 4 2 7 0;
#X connect 4 3 8 0;
#X connect 5 0 17 0;
#X connect 6 0 13 0;
#X connect 7 0 14 0;
#X connect 8 0 15 0;
#X connect 9 0 16 0;
#X connect 11 0 10 0;
#X connect 11 0 10 1;
#X connect 13 0 11 0;
#X connect 14 0 11 0;
#X connect 15 0 11 0;
#X connect 16 0 1 0;
#X connect 16 0 3 0;
#X connect 17 0 11 0;
#X connect 17 0 12 0;
